<svg width="25" height="25" viewBox="0 0 25 25" fill="none" xmlns="http://www.w3.org/2000/svg">
<path fill-rule="evenodd" clip-rule="evenodd" d="M2.81438 14.2601V4.45288C2.81438 3.55232 3.55238 2.81475 4.45296 2.81475H20.547C21.4476 2.81475 22.1856 3.55232 22.1856 4.45288V20.5471C22.1856 21.4468 21.4472 22.1857 20.547 22.1857H10.478V25H21.1885C23.2856 25 25 23.2852 25 21.1886V3.81186C25 1.71476 23.2856 0 21.1885 0H3.8115C1.71479 0 0 1.71434 0 3.81186V14.2601H2.81438ZM5.78457 8.16948V22.1073C5.78457 22.1505 5.74943 22.1857 5.70666 22.1857H3.03032C2.91176 22.1857 2.81438 22.0883 2.81438 21.9693V19.4315C2.81438 19.3125 2.91176 19.2155 3.03032 19.2155H4.71208V16.4008H1.49758C0.673637 16.4008 0 17.0748 0 17.8988V23.5024C0 24.326 0.673637 25 1.49758 25H7.10136C7.92531 25 8.59895 24.326 8.59895 23.5024V9.28598C8.59895 8.90788 8.90804 8.59923 9.28572 8.59923H15.7143C16.092 8.59923 16.4011 8.90788 16.4011 9.28598V15.7144C16.4011 16.0921 16.092 16.4008 15.7143 16.4008H10.478V19.2155H16.8304C18.1425 19.2155 19.2154 18.1422 19.2154 16.8305V7.7537C19.2154 6.67064 18.3297 5.78448 17.2466 5.78448H8.16962C6.85748 5.78448 5.78457 6.85779 5.78457 8.16948Z" fill="#4652B7"/>
</svg>
